<svg width="144" height="105" viewBox="0 0 144 105" fill="none" xmlns="http://www.w3.org/2000/svg">
<path d="M30.848 24.344C25.472 24.344 21.92 26.968 21.92 31.096C21.92 39.032 33.76 36.664 33.76 40.632C33.76 41.912 32.64 42.584 30.848 42.584C28.512 42.584 25.056 41.24 22.752 39.224L20.544 43.608C23.2 45.784 27.04 47.192 30.784 47.192C35.776 47.192 39.744 44.824 39.744 40.344C39.744 32.248 27.904 34.456 27.904 30.584C27.904 29.496 28.896 28.952 30.368 28.952C32.192 28.952 35.168 29.912 37.536 31.288L39.68 26.84C37.376 25.336 34.08 24.344 30.848 24.344ZM71.1858 47V24.6H65.4898V33.816H56.2098V24.6H50.5138V47H56.2098V38.296H65.4898V47H71.1858ZM103.51 24.6H97.846V37.592C97.846 40.632 96.022 42.488 93.334 42.488C90.614 42.488 88.662 40.632 88.662 37.592V24.6H82.966V37.592C82.966 43.512 86.998 47.256 93.302 47.256C99.574 47.256 103.51 43.512 103.51 37.592V24.6Z" fill="#444444"/>
<path d="M31.848 62.08V57.6H15.24V80H20.936V71.744H30.984V67.264H20.936V62.08H31.848ZM58.8405 62.08V57.6H42.2325V80H47.9285V71.744H57.9765V67.264H47.9285V62.08H58.8405ZM74.921 75.232V57.6H69.225V80H84.425V75.232H74.921ZM112.347 62.08V57.6H94.8113V80H112.699V75.52H100.507V71.008H111.195V66.528H100.507V62.08H112.347Z" fill="#444444"/>
<rect x="1.5" y="1.5" width="123" height="102" stroke="black" stroke-width="3"/>
</svg>
